<!-- icons.svg -->
<svg xmlns="http://www.w3.org/2000/svg" style="display: none;">
    <symbol id="icon-info" viewBox="0 0 1024 1024">
        <path d="M433 203.2H213c-22 0-40 18-40 40v220c0 22 18 40 40 40h220c22 0 40-18 40-40v-220c0-22-18-40-40-40z m0 260l-219.9 0.1s-0.1 0-0.1-0.1V243.3s0-0.1 0.1-0.1H433s0.1 0 0.1 0.1l-0.1 219.9zM702.5 203.2c-82.5 0-150 67.5-150 150s67.5 150 150 150 150-67.5 150-150-67.5-150-150-150z m77.7 227.7c-20.9 20.9-48.4 32.3-77.7 32.3-29.2 0-56.8-11.5-77.7-32.3-20.9-20.9-32.3-48.4-32.3-77.7 0-29.2 11.5-56.8 32.3-77.7 20.9-20.9 48.4-32.3 77.7-32.3 29.2 0 56.8 11.5 77.7 32.3 20.9 20.9 32.3 48.4 32.3 77.7 0 29.2-11.5 56.8-32.3 77.7zM431.3 564.2h-220c-22 0-40 18-40 40v220c0 22 18 40 40 40h220c22 0 40-18 40-40v-220c0-22-18-40-40-40z m0 260l-219.9 0.1s-0.1 0-0.1-0.1V604.3s0-0.1 0.1-0.1h219.9s0.1 0 0.1 0.1l-0.1 219.9zM812.5 564.2h-220c-22 0-40 18-40 40v220c0 22 18 40 40 40h220c22 0 40-18 40-40v-220c0-22-18-40-40-40z m0 260l-219.9 0.1s-0.1 0-0.1-0.1V604.3s0-0.1 0.1-0.1h219.9s0.1 0 0.1 0.1l-0.1 219.9z" fill="#5ABE64"/>
    </symbol>
    
    <symbol id="icon-edit" viewBox="0 0 24 24">
       
        <path d="M3 17.25V21h3.75L17.81 9.94l-3.75-3.75L3 17.25zM20.71 7.04c.39-.39.39-1.02 0-1.41l-2.34-2.34c-.39-.39-1.02-.39-1.41 0l-1.83 1.83 3.75 3.75 1.83-1.83z"
      fill="#3C91E6"
       />
    </symbol>
    
    <symbol id="icon-delete" viewBox="0 0 24 24">

        <path d="M6 19c0 1.1.9 2 2 2h8c1.1 0 2-.9 2-2V7H6v12zM19 4h-3.5l-1-1h-5l-1 1H5v2h14V4z"    fill="#F08080"/>
    </symbol>
    
    <symbol id="icon-add" viewBox="0 0 24 24">
        <path d="M11 10H9v3H6v2h3v3h2v-3h3v-2h-3z"/>
        <path d="M4 22h12c1.103 0 2-.897 2-2V8c0-1.103-.897-2-2-2H4c-1.103 0-2 .897-2 2v12c0 1.103.897 2 2 2zM4 8h12l.002 12H4V8z"/>
        <path d="M20 2H8v2h12v12h2V4c0-1.103-.897-2-2-2z"/>
    </symbol>
</svg>
